<?xml version="1.0" encoding="UTF-8"?>
<svg xmlns="http://www.w3.org/2000/svg" viewBox="0 0 802 203" width="802" height="203">
<rect width="100%" height="100%" fill="#0d1117"/>
<text x="40" y="16" font-family="monospace" font-size="10" fill="#8b949e">Jul</text>
<text x="68" y="16" font-family="monospace" font-size="10" fill="#8b949e">Aug</text>
<text x="138" y="16" font-family="monospace" font-size="10" fill="#8b949e">Sep</text>
<text x="194" y="16" font-family="monospace" font-size="10" fill="#8b949e">Oct</text>
<text x="250" y="16" font-family="monospace" font-size="10" fill="#8b949e">Nov</text>
<text x="320" y="16" font-family="monospace" font-size="10" fill="#8b949e">Dec</text>
<text x="376" y="16" font-family="monospace" font-size="10" fill="#8b949e">Jan</text>
<text x="432" y="16" font-family="monospace" font-size="10" fill="#8b949e">Feb</text>
<text x="488" y="16" font-family="monospace" font-size="10" fill="#8b949e">Mar</text>
<text x="558" y="16" font-family="monospace" font-size="10" fill="#8b949e">Apr</text>
<text x="614" y="16" font-family="monospace" font-size="10" fill="#8b949e">May</text>
<text x="684" y="16" font-family="monospace" font-size="10" fill="#8b949e">Jun</text>
<text x="5" y="48" font-family="monospace" font-size="9" fill="#8b949e">Mon</text>
<text x="5" y="76" font-family="monospace" font-size="9" fill="#8b949e">Wed</text>
<text x="5" y="104" font-family="monospace" font-size="9" fill="#8b949e">Fri</text>
<rect x="40" y="25" width="11" height="11" fill="#161b22" rx="2"/>
<rect x="40" y="39" width="11" height="11" fill="#161b22" rx="2"/>
<rect x="40" y="53" width="11" height="11" fill="#161b22" rx="2"/>
<rect x="40" y="67" width="11" height="11" fill="#161b22" rx="2"/>
<rect x="40" y="81" width="11" height="11" fill="#161b22" rx="2"/>
<rect x="40" y="95" width="11" height="11" fill="#161b22" rx="2"/>
<rect x="40" y="109" width="11" height="11" fill="#161b22" rx="2"/>
<rect x="54" y="25" width="11" height="11" fill="#161b22" rx="2"/>
<rect x="54" y="39" width="11" height="11" fill="#161b22" rx="2"/>
<rect x="54" y="53" width="11" height="11" fill="#161b22" rx="2"/>
<rect x="54" y="67" width="11" height="11" fill="#161b22" rx="2"/>
<rect x="54" y="81" width="11" height="11" fill="#161b22" rx="2"/>
<rect x="54" y="95" width="11" height="11" fill="#161b22" rx="2"/>
<rect x="54" y="109" width="11" height="11" fill="#161b22" rx="2"/>
<rect x="68" y="25" width="11" height="11" fill="#161b22" rx="2"/>
<rect x="68" y="39" width="11" height="11" fill="#161b22" rx="2"/>
<rect x="68" y="53" width="11" height="11" fill="#161b22" rx="2"/>
<rect x="68" y="67" width="11" height="11" fill="#161b22" rx="2"/>
<rect x="68" y="81" width="11" height="11" fill="#161b22" rx="2"/>
<rect x="68" y="95" width="11" height="11" fill="#161b22" rx="2"/>
<rect x="68" y="109" width="11" height="11" fill="#161b22" rx="2"/>
<rect x="82" y="25" width="11" height="11" fill="#161b22" rx="2"/>
<rect x="82" y="39" width="11" height="11" fill="#161b22" rx="2"/>
<rect x="82" y="53" width="11" height="11" fill="#161b22" rx="2"/>
<rect x="82" y="67" width="11" height="11" fill="#161b22" rx="2"/>
<rect x="82" y="81" width="11" height="11" fill="#161b22" rx="2"/>
<rect x="82" y="95" width="11" height="11" fill="#161b22" rx="2"/>
<rect x="82" y="109" width="11" height="11" fill="#161b22" rx="2"/>
<rect x="96" y="25" width="11" height="11" fill="#161b22" rx="2"/>
<rect x="96" y="39" width="11" height="11" fill="#161b22" rx="2"/>
<rect x="96" y="53" width="11" height="11" fill="#161b22" rx="2"/>
<rect x="96" y="67" width="11" height="11" fill="#161b22" rx="2"/>
<rect x="96" y="81" width="11" height="11" fill="#161b22" rx="2"/>
<rect x="96" y="95" width="11" height="11" fill="#161b22" rx="2"/>
<rect x="96" y="109" width="11" height="11" fill="#161b22" rx="2"/>
<rect x="110" y="25" width="11" height="11" fill="#161b22" rx="2"/>
<rect x="110" y="39" width="11" height="11" fill="#161b22" rx="2"/>
<rect x="110" y="53" width="11" height="11" fill="#161b22" rx="2"/>
<rect x="110" y="67" width="11" height="11" fill="#161b22" rx="2"/>
<rect x="110" y="81" width="11" height="11" fill="#161b22" rx="2"/>
<rect x="110" y="95" width="11" height="11" fill="#161b22" rx="2"/>
<rect x="110" y="109" width="11" height="11" fill="#161b22" rx="2"/>
<rect x="124" y="25" width="11" height="11" fill="#161b22" rx="2"/>
<rect x="124" y="39" width="11" height="11" fill="#161b22" rx="2"/>
<rect x="124" y="53" width="11" height="11" fill="#161b22" rx="2"/>
<rect x="124" y="67" width="11" height="11" fill="#161b22" rx="2"/>
<rect x="124" y="81" width="11" height="11" fill="#161b22" rx="2"/>
<rect x="124" y="95" width="11" height="11" fill="#161b22" rx="2"/>
<rect x="124" y="109" width="11" height="11" fill="#161b22" rx="2"/>
<rect x="138" y="25" width="11" height="11" fill="#161b22" rx="2"/>
<rect x="138" y="39" width="11" height="11" fill="#161b22" rx="2"/>
<rect x="138" y="53" width="11" height="11" fill="#161b22" rx="2"/>
<rect x="138" y="67" width="11" height="11" fill="#161b22" rx="2"/>
<rect x="138" y="81" width="11" height="11" fill="#161b22" rx="2"/>
<rect x="138" y="95" width="11" height="11" fill="#161b22" rx="2"/>
<rect x="138" y="109" width="11" height="11" fill="#161b22" rx="2"/>
<rect x="152" y="25" width="11" height="11" fill="#161b22" rx="2"/>
<rect x="152" y="39" width="11" height="11" fill="#161b22" rx="2"/>
<rect x="152" y="53" width="11" height="11" fill="#161b22" rx="2"/>
<rect x="152" y="67" width="11" height="11" fill="#161b22" rx="2"/>
<rect x="152" y="81" width="11" height="11" fill="#161b22" rx="2"/>
<rect x="152" y="95" width="11" height="11" fill="#161b22" rx="2"/>
<rect x="152" y="109" width="11" height="11" fill="#161b22" rx="2"/>
<rect x="166" y="25" width="11" height="11" fill="#161b22" rx="2"/>
<rect x="166" y="39" width="11" height="11" fill="#161b22" rx="2"/>
<rect x="166" y="53" width="11" height="11" fill="#161b22" rx="2"/>
<rect x="166" y="67" width="11" height="11" fill="#161b22" rx="2"/>
<rect x="166" y="81" width="11" height="11" fill="#161b22" rx="2"/>
<rect x="166" y="95" width="11" height="11" fill="#161b22" rx="2"/>
<rect x="166" y="109" width="11" height="11" fill="#161b22" rx="2"/>
<rect x="180" y="25" width="11" height="11" fill="#161b22" rx="2"/>
<rect x="180" y="39" width="11" height="11" fill="#161b22" rx="2"/>
<rect x="180" y="53" width="11" height="11" fill="#161b22" rx="2"/>
<rect x="180" y="67" width="11" height="11" fill="#161b22" rx="2"/>
<rect x="180" y="81" width="11" height="11" fill="#161b22" rx="2"/>
<rect x="180" y="95" width="11" height="11" fill="#161b22" rx="2"/>
<rect x="180" y="109" width="11" height="11" fill="#161b22" rx="2"/>
<rect x="194" y="25" width="11" height="11" fill="#161b22" rx="2"/>
<rect x="194" y="39" width="11" height="11" fill="#161b22" rx="2"/>
<rect x="194" y="53" width="11" height="11" fill="#161b22" rx="2"/>
<rect x="194" y="67" width="11" height="11" fill="#161b22" rx="2"/>
<rect x="194" y="81" width="11" height="11" fill="#161b22" rx="2"/>
<rect x="194" y="95" width="11" height="11" fill="#161b22" rx="2"/>
<rect x="194" y="109" width="11" height="11" fill="#161b22" rx="2"/>
<rect x="208" y="25" width="11" height="11" fill="#161b22" rx="2"/>
<rect x="208" y="39" width="11" height="11" fill="#161b22" rx="2"/>
<rect x="208" y="53" width="11" height="11" fill="#161b22" rx="2"/>
<rect x="208" y="67" width="11" height="11" fill="#161b22" rx="2"/>
<rect x="208" y="81" width="11" height="11" fill="#161b22" rx="2"/>
<rect x="208" y="95" width="11" height="11" fill="#161b22" rx="2"/>
<rect x="208" y="109" width="11" height="11" fill="#161b22" rx="2"/>
<rect x="222" y="25" width="11" height="11" fill="#161b22" rx="2"/>
<rect x="222" y="39" width="11" height="11" fill="#161b22" rx="2"/>
<rect x="222" y="53" width="11" height="11" fill="#161b22" rx="2"/>
<rect x="222" y="67" width="11" height="11" fill="#161b22" rx="2"/>
<rect x="222" y="81" width="11" height="11" fill="#161b22" rx="2"/>
<rect x="222" y="95" width="11" height="11" fill="#161b22" rx="2"/>
<rect x="222" y="109" width="11" height="11" fill="#161b22" rx="2"/>
<rect x="236" y="25" width="11" height="11" fill="#161b22" rx="2"/>
<rect x="236" y="39" width="11" height="11" fill="#161b22" rx="2"/>
<rect x="236" y="53" width="11" height="11" fill="#161b22" rx="2"/>
<rect x="236" y="67" width="11" height="11" fill="#161b22" rx="2"/>
<rect x="236" y="81" width="11" height="11" fill="#161b22" rx="2"/>
<rect x="236" y="95" width="11" height="11" fill="#161b22" rx="2"/>
<rect x="236" y="109" width="11" height="11" fill="#161b22" rx="2"/>
<rect x="250" y="25" width="11" height="11" fill="#161b22" rx="2"/>
<rect x="250" y="39" width="11" height="11" fill="#161b22" rx="2"/>
<rect x="250" y="53" width="11" height="11" fill="#161b22" rx="2"/>
<rect x="250" y="67" width="11" height="11" fill="#161b22" rx="2"/>
<rect x="250" y="81" width="11" height="11" fill="#161b22" rx="2"/>
<rect x="250" y="95" width="11" height="11" fill="#161b22" rx="2"/>
<rect x="250" y="109" width="11" height="11" fill="#161b22" rx="2"/>
<rect x="264" y="25" width="11" height="11" fill="#161b22" rx="2"/>
<rect x="264" y="39" width="11" height="11" fill="#161b22" rx="2"/>
<rect x="264" y="53" width="11" height="11" fill="#161b22" rx="2"/>
<rect x="264" y="67" width="11" height="11" fill="#161b22" rx="2"/>
<rect x="264" y="81" width="11" height="11" fill="#161b22" rx="2"/>
<rect x="264" y="95" width="11" height="11" fill="#161b22" rx="2"/>
<rect x="264" y="109" width="11" height="11" fill="#161b22" rx="2"/>
<rect x="278" y="25" width="11" height="11" fill="#161b22" rx="2"/>
<rect x="278" y="39" width="11" height="11" fill="#161b22" rx="2"/>
<rect x="278" y="53" width="11" height="11" fill="#161b22" rx="2"/>
<rect x="278" y="67" width="11" height="11" fill="#161b22" rx="2"/>
<rect x="278" y="81" width="11" height="11" fill="#161b22" rx="2"/>
<rect x="278" y="95" width="11" height="11" fill="#161b22" rx="2"/>
<rect x="278" y="109" width="11" height="11" fill="#161b22" rx="2"/>
<rect x="292" y="25" width="11" height="11" fill="#161b22" rx="2"/>
<rect x="292" y="39" width="11" height="11" fill="#161b22" rx="2"/>
<rect x="292" y="53" width="11" height="11" fill="#161b22" rx="2"/>
<rect x="292" y="67" width="11" height="11" fill="#161b22" rx="2"/>
<rect x="292" y="81" width="11" height="11" fill="#161b22" rx="2"/>
<rect x="292" y="95" width="11" height="11" fill="#161b22" rx="2"/>
<rect x="292" y="109" width="11" height="11" fill="#161b22" rx="2"/>
<rect x="306" y="25" width="11" height="11" fill="#161b22" rx="2"/>
<rect x="306" y="39" width="11" height="11" fill="#161b22" rx="2"/>
<rect x="306" y="53" width="11" height="11" fill="#161b22" rx="2"/>
<rect x="306" y="67" width="11" height="11" fill="#161b22" rx="2"/>
<rect x="306" y="81" width="11" height="11" fill="#161b22" rx="2"/>
<rect x="306" y="95" width="11" height="11" fill="#161b22" rx="2"/>
<rect x="306" y="109" width="11" height="11" fill="#161b22" rx="2"/>
<rect x="320" y="25" width="11" height="11" fill="#161b22" rx="2"/>
<rect x="320" y="39" width="11" height="11" fill="#161b22" rx="2"/>
<rect x="320" y="53" width="11" height="11" fill="#161b22" rx="2"/>
<rect x="320" y="67" width="11" height="11" fill="#161b22" rx="2"/>
<rect x="320" y="81" width="11" height="11" fill="#161b22" rx="2"/>
<rect x="320" y="95" width="11" height="11" fill="#161b22" rx="2"/>
<rect x="320" y="109" width="11" height="11" fill="#161b22" rx="2"/>
<rect x="334" y="25" width="11" height="11" fill="#161b22" rx="2"/>
<rect x="334" y="39" width="11" height="11" fill="#161b22" rx="2"/>
<rect x="334" y="53" width="11" height="11" fill="#161b22" rx="2"/>
<rect x="334" y="67" width="11" height="11" fill="#161b22" rx="2"/>
<rect x="334" y="81" width="11" height="11" fill="#161b22" rx="2"/>
<rect x="334" y="95" width="11" height="11" fill="#161b22" rx="2"/>
<rect x="334" y="109" width="11" height="11" fill="#161b22" rx="2"/>
<rect x="348" y="25" width="11" height="11" fill="#161b22" rx="2"/>
<rect x="348" y="39" width="11" height="11" fill="#161b22" rx="2"/>
<rect x="348" y="53" width="11" height="11" fill="#161b22" rx="2"/>
<rect x="348" y="67" width="11" height="11" fill="#161b22" rx="2"/>
<rect x="348" y="81" width="11" height="11" fill="#161b22" rx="2"/>
<rect x="348" y="95" width="11" height="11" fill="#161b22" rx="2"/>
<rect x="348" y="109" width="11" height="11" fill="#161b22" rx="2"/>
<rect x="362" y="25" width="11" height="11" fill="#161b22" rx="2"/>
<rect x="362" y="39" width="11" height="11" fill="#161b22" rx="2"/>
<rect x="362" y="53" width="11" height="11" fill="#161b22" rx="2"/>
<rect x="362" y="67" width="11" height="11" fill="#161b22" rx="2"/>
<rect x="362" y="81" width="11" height="11" fill="#161b22" rx="2"/>
<rect x="362" y="95" width="11" height="11" fill="#161b22" rx="2"/>
<rect x="362" y="109" width="11" height="11" fill="#161b22" rx="2"/>
<rect x="376" y="25" width="11" height="11" fill="#161b22" rx="2"/>
<rect x="376" y="39" width="11" height="11" fill="#161b22" rx="2"/>
<rect x="376" y="53" width="11" height="11" fill="#161b22" rx="2"/>
<rect x="376" y="67" width="11" height="11" fill="#161b22" rx="2"/>
<rect x="376" y="81" width="11" height="11" fill="#161b22" rx="2"/>
<rect x="376" y="95" width="11" height="11" fill="#161b22" rx="2"/>
<rect x="376" y="109" width="11" height="11" fill="#161b22" rx="2"/>
<rect x="390" y="25" width="11" height="11" fill="#161b22" rx="2"/>
<rect x="390" y="39" width="11" height="11" fill="#161b22" rx="2"/>
<rect x="390" y="53" width="11" height="11" fill="#161b22" rx="2"/>
<rect x="390" y="67" width="11" height="11" fill="#161b22" rx="2"/>
<rect x="390" y="81" width="11" height="11" fill="#161b22" rx="2"/>
<rect x="390" y="95" width="11" height="11" fill="#161b22" rx="2"/>
<rect x="390" y="109" width="11" height="11" fill="#161b22" rx="2"/>
<rect x="404" y="25" width="11" height="11" fill="#161b22" rx="2"/>
<rect x="404" y="39" width="11" height="11" fill="#161b22" rx="2"/>
<rect x="404" y="53" width="11" height="11" fill="#161b22" rx="2"/>
<rect x="404" y="67" width="11" height="11" fill="#161b22" rx="2"/>
<rect x="404" y="81" width="11" height="11" fill="#161b22" rx="2"/>
<rect x="404" y="95" width="11" height="11" fill="#161b22" rx="2"/>
<rect x="404" y="109" width="11" height="11" fill="#161b22" rx="2"/>
<rect x="418" y="25" width="11" height="11" fill="#161b22" rx="2"/>
<rect x="418" y="39" width="11" height="11" fill="#161b22" rx="2"/>
<rect x="418" y="53" width="11" height="11" fill="#161b22" rx="2"/>
<rect x="418" y="67" width="11" height="11" fill="#161b22" rx="2"/>
<rect x="418" y="81" width="11" height="11" fill="#161b22" rx="2"/>
<rect x="418" y="95" width="11" height="11" fill="#161b22" rx="2"/>
<rect x="418" y="109" width="11" height="11" fill="#161b22" rx="2"/>
<rect x="432" y="25" width="11" height="11" fill="#161b22" rx="2"/>
<rect x="432" y="39" width="11" height="11" fill="#161b22" rx="2"/>
<rect x="432" y="53" width="11" height="11" fill="#161b22" rx="2"/>
<rect x="432" y="67" width="11" height="11" fill="#161b22" rx="2"/>
<rect x="432" y="81" width="11" height="11" fill="#161b22" rx="2"/>
<rect x="432" y="95" width="11" height="11" fill="#161b22" rx="2"/>
<rect x="432" y="109" width="11" height="11" fill="#161b22" rx="2"/>
<rect x="446" y="25" width="11" height="11" fill="#161b22" rx="2"/>
<rect x="446" y="39" width="11" height="11" fill="#161b22" rx="2"/>
<rect x="446" y="53" width="11" height="11" fill="#161b22" rx="2"/>
<rect x="446" y="67" width="11" height="11" fill="#161b22" rx="2"/>
<rect x="446" y="81" width="11" height="11" fill="#161b22" rx="2"/>
<rect x="446" y="95" width="11" height="11" fill="#161b22" rx="2"/>
<rect x="446" y="109" width="11" height="11" fill="#161b22" rx="2"/>
<rect x="460" y="25" width="11" height="11" fill="#161b22" rx="2"/>
<rect x="460" y="39" width="11" height="11" fill="#161b22" rx="2"/>
<rect x="460" y="53" width="11" height="11" fill="#161b22" rx="2"/>
<rect x="460" y="67" width="11" height="11" fill="#161b22" rx="2"/>
<rect x="460" y="81" width="11" height="11" fill="#161b22" rx="2"/>
<rect x="460" y="95" width="11" height="11" fill="#161b22" rx="2"/>
<rect x="460" y="109" width="11" height="11" fill="#161b22" rx="2"/>
<rect x="474" y="25" width="11" height="11" fill="#161b22" rx="2"/>
<rect x="474" y="39" width="11" height="11" fill="#161b22" rx="2"/>
<rect x="474" y="53" width="11" height="11" fill="#161b22" rx="2"/>
<rect x="474" y="67" width="11" height="11" fill="#161b22" rx="2"/>
<rect x="474" y="81" width="11" height="11" fill="#161b22" rx="2"/>
<rect x="474" y="95" width="11" height="11" fill="#161b22" rx="2"/>
<rect x="474" y="109" width="11" height="11" fill="#161b22" rx="2"/>
<rect x="488" y="25" width="11" height="11" fill="#161b22" rx="2"/>
<rect x="488" y="39" width="11" height="11" fill="#161b22" rx="2"/>
<rect x="488" y="53" width="11" height="11" fill="#161b22" rx="2"/>
<rect x="488" y="67" width="11" height="11" fill="#161b22" rx="2"/>
<rect x="488" y="81" width="11" height="11" fill="#161b22" rx="2"/>
<rect x="488" y="95" width="11" height="11" fill="#161b22" rx="2"/>
<rect x="488" y="109" width="11" height="11" fill="#161b22" rx="2"/>
<rect x="502" y="25" width="11" height="11" fill="#161b22" rx="2"/>
<rect x="502" y="39" width="11" height="11" fill="#161b22" rx="2"/>
<rect x="502" y="53" width="11" height="11" fill="#161b22" rx="2"/>
<rect x="502" y="67" width="11" height="11" fill="#161b22" rx="2"/>
<rect x="502" y="81" width="11" height="11" fill="#161b22" rx="2"/>
<rect x="502" y="95" width="11" height="11" fill="#161b22" rx="2"/>
<rect x="502" y="109" width="11" height="11" fill="#161b22" rx="2"/>
<rect x="516" y="25" width="11" height="11" fill="#161b22" rx="2"/>
<rect x="516" y="39" width="11" height="11" fill="#161b22" rx="2"/>
<rect x="516" y="53" width="11" height="11" fill="#161b22" rx="2"/>
<rect x="516" y="67" width="11" height="11" fill="#161b22" rx="2"/>
<rect x="516" y="81" width="11" height="11" fill="#161b22" rx="2"/>
<rect x="516" y="95" width="11" height="11" fill="#161b22" rx="2"/>
<rect x="516" y="109" width="11" height="11" fill="#161b22" rx="2"/>
<rect x="530" y="25" width="11" height="11" fill="#161b22" rx="2"/>
<rect x="530" y="39" width="11" height="11" fill="#161b22" rx="2"/>
<rect x="530" y="53" width="11" height="11" fill="#161b22" rx="2"/>
<rect x="530" y="67" width="11" height="11" fill="#161b22" rx="2"/>
<rect x="530" y="81" width="11" height="11" fill="#161b22" rx="2"/>
<rect x="530" y="95" width="11" height="11" fill="#161b22" rx="2"/>
<rect x="530" y="109" width="11" height="11" fill="#161b22" rx="2"/>
<rect x="544" y="25" width="11" height="11" fill="#161b22" rx="2"/>
<rect x="544" y="39" width="11" height="11" fill="#161b22" rx="2"/>
<rect x="544" y="53" width="11" height="11" fill="#161b22" rx="2"/>
<rect x="544" y="67" width="11" height="11" fill="#161b22" rx="2"/>
<rect x="544" y="81" width="11" height="11" fill="#161b22" rx="2"/>
<rect x="544" y="95" width="11" height="11" fill="#161b22" rx="2"/>
<rect x="544" y="109" width="11" height="11" fill="#161b22" rx="2"/>
<rect x="558" y="25" width="11" height="11" fill="#161b22" rx="2"/>
<rect x="558" y="39" width="11" height="11" fill="#161b22" rx="2"/>
<rect x="558" y="53" width="11" height="11" fill="#161b22" rx="2"/>
<rect x="558" y="67" width="11" height="11" fill="#161b22" rx="2"/>
<rect x="558" y="81" width="11" height="11" fill="#161b22" rx="2"/>
<rect x="558" y="95" width="11" height="11" fill="#161b22" rx="2"/>
<rect x="558" y="109" width="11" height="11" fill="#161b22" rx="2"/>
<rect x="572" y="25" width="11" height="11" fill="#161b22" rx="2"/>
<rect x="572" y="39" width="11" height="11" fill="#161b22" rx="2"/>
<rect x="572" y="53" width="11" height="11" fill="#161b22" rx="2"/>
<rect x="572" y="67" width="11" height="11" fill="#161b22" rx="2"/>
<rect x="572" y="81" width="11" height="11" fill="#161b22" rx="2"/>
<rect x="572" y="95" width="11" height="11" fill="#161b22" rx="2"/>
<rect x="572" y="109" width="11" height="11" fill="#161b22" rx="2"/>
<rect x="586" y="25" width="11" height="11" fill="#161b22" rx="2"/>
<rect x="586" y="39" width="11" height="11" fill="#161b22" rx="2"/>
<rect x="586" y="53" width="11" height="11" fill="#161b22" rx="2"/>
<rect x="586" y="67" width="11" height="11" fill="#161b22" rx="2"/>
<rect x="586" y="81" width="11" height="11" fill="#161b22" rx="2"/>
<rect x="586" y="95" width="11" height="11" fill="#161b22" rx="2"/>
<rect x="586" y="109" width="11" height="11" fill="#161b22" rx="2"/>
<rect x="600" y="25" width="11" height="11" fill="#161b22" rx="2"/>
<rect x="600" y="39" width="11" height="11" fill="#161b22" rx="2"/>
<rect x="600" y="53" width="11" height="11" fill="#161b22" rx="2"/>
<rect x="600" y="67" width="11" height="11" fill="#161b22" rx="2"/>
<rect x="600" y="81" width="11" height="11" fill="#161b22" rx="2"/>
<rect x="600" y="95" width="11" height="11" fill="#161b22" rx="2"/>
<rect x="600" y="109" width="11" height="11" fill="#161b22" rx="2"/>
<rect x="614" y="25" width="11" height="11" fill="#161b22" rx="2"/>
<rect x="614" y="39" width="11" height="11" fill="#161b22" rx="2"/>
<rect x="614" y="53" width="11" height="11" fill="#161b22" rx="2"/>
<rect x="614" y="67" width="11" height="11" fill="#161b22" rx="2"/>
<rect x="614" y="81" width="11" height="11" fill="#161b22" rx="2"/>
<rect x="614" y="95" width="11" height="11" fill="#161b22" rx="2"/>
<rect x="614" y="109" width="11" height="11" fill="#161b22" rx="2"/>
<rect x="628" y="25" width="11" height="11" fill="#161b22" rx="2"/>
<rect x="628" y="39" width="11" height="11" fill="#161b22" rx="2"/>
<rect x="628" y="53" width="11" height="11" fill="#161b22" rx="2"/>
<rect x="628" y="67" width="11" height="11" fill="#161b22" rx="2"/>
<rect x="628" y="81" width="11" height="11" fill="#161b22" rx="2"/>
<rect x="628" y="95" width="11" height="11" fill="#161b22" rx="2"/>
<rect x="628" y="109" width="11" height="11" fill="#161b22" rx="2"/>
<rect x="642" y="25" width="11" height="11" fill="#161b22" rx="2"/>
<rect x="642" y="39" width="11" height="11" fill="#161b22" rx="2"/>
<rect x="642" y="53" width="11" height="11" fill="#161b22" rx="2"/>
<rect x="642" y="67" width="11" height="11" fill="#161b22" rx="2"/>
<rect x="642" y="81" width="11" height="11" fill="#161b22" rx="2"/>
<rect x="642" y="95" width="11" height="11" fill="#161b22" rx="2"/>
<rect x="642" y="109" width="11" height="11" fill="#161b22" rx="2"/>
<rect x="656" y="25" width="11" height="11" fill="#161b22" rx="2"/>
<rect x="656" y="39" width="11" height="11" fill="#161b22" rx="2"/>
<rect x="656" y="53" width="11" height="11" fill="#161b22" rx="2"/>
<rect x="656" y="67" width="11" height="11" fill="#161b22" rx="2"/>
<rect x="656" y="81" width="11" height="11" fill="#161b22" rx="2"/>
<rect x="656" y="95" width="11" height="11" fill="#161b22" rx="2"/>
<rect x="656" y="109" width="11" height="11" fill="#161b22" rx="2"/>
<rect x="670" y="25" width="11" height="11" fill="#161b22" rx="2"/>
<rect x="670" y="39" width="11" height="11" fill="#161b22" rx="2"/>
<rect x="670" y="53" width="11" height="11" fill="#161b22" rx="2"/>
<rect x="670" y="67" width="11" height="11" fill="#161b22" rx="2"/>
<rect x="670" y="81" width="11" height="11" fill="#161b22" rx="2"/>
<rect x="670" y="95" width="11" height="11" fill="#161b22" rx="2"/>
<rect x="670" y="109" width="11" height="11" fill="#161b22" rx="2"/>
<rect x="684" y="25" width="11" height="11" fill="#161b22" rx="2"/>
<rect x="684" y="39" width="11" height="11" fill="#161b22" rx="2"/>
<rect x="684" y="53" width="11" height="11" fill="#161b22" rx="2"/>
<rect x="684" y="67" width="11" height="11" fill="#161b22" rx="2"/>
<rect x="684" y="81" width="11" height="11" fill="#161b22" rx="2"/>
<rect x="684" y="95" width="11" height="11" fill="#161b22" rx="2"/>
<rect x="684" y="109" width="11" height="11" fill="#161b22" rx="2"/>
<rect x="698" y="25" width="11" height="11" fill="#161b22" rx="2"/>
<rect x="698" y="39" width="11" height="11" fill="#161b22" rx="2"/>
<rect x="698" y="53" width="11" height="11" fill="#161b22" rx="2"/>
<rect x="698" y="67" width="11" height="11" fill="#161b22" rx="2"/>
<rect x="698" y="81" width="11" height="11" fill="#161b22" rx="2"/>
<rect x="698" y="95" width="11" height="11" fill="#161b22" rx="2"/>
<rect x="698" y="109" width="11" height="11" fill="#161b22" rx="2"/>
<rect x="712" y="25" width="11" height="11" fill="#161b22" rx="2"/>
<rect x="712" y="39" width="11" height="11" fill="#161b22" rx="2"/>
<rect x="712" y="53" width="11" height="11" fill="#161b22" rx="2"/>
<rect x="712" y="67" width="11" height="11" fill="#161b22" rx="2"/>
<rect x="712" y="81" width="11" height="11" fill="#161b22" rx="2"/>
<rect x="712" y="95" width="11" height="11" fill="#161b22" rx="2"/>
<rect x="712" y="109" width="11" height="11" fill="#161b22" rx="2"/>
<rect x="726" y="25" width="11" height="11" fill="#161b22" rx="2"/>
<rect x="726" y="39" width="11" height="11" fill="#161b22" rx="2"/>
<rect x="726" y="53" width="11" height="11" fill="#161b22" rx="2"/>
<rect x="726" y="67" width="11" height="11" fill="#161b22" rx="2"/>
<rect x="726" y="81" width="11" height="11" fill="#161b22" rx="2"/>
<rect x="726" y="95" width="11" height="11" fill="#161b22" rx="2"/>
<rect x="726" y="109" width="11" height="11" fill="#161b22" rx="2"/>
<rect x="740" y="25" width="11" height="11" fill="#161b22" rx="2"/>
<rect x="740" y="39" width="11" height="11" fill="#161b22" rx="2"/>
<rect x="740" y="53" width="11" height="11" fill="#161b22" rx="2"/>
<rect x="740" y="67" width="11" height="11" fill="#161b22" rx="2"/>
<rect x="740" y="81" width="11" height="11" fill="#161b22" rx="2"/>
<rect x="740" y="95" width="11" height="11" fill="#161b22" rx="2"/>
<rect x="740" y="109" width="11" height="11" fill="#161b22" rx="2"/>
<rect x="754" y="25" width="11" height="11" fill="#161b22" rx="2"/>
<rect x="754" y="39" width="11" height="11" fill="#161b22" rx="2"/>
<rect x="754" y="53" width="11" height="11" fill="#161b22" rx="2"/>
<rect x="754" y="67" width="11" height="11" fill="#161b22" rx="2"/>
<rect x="754" y="81" width="11" height="11" fill="#161b22" rx="2"/>
<rect x="754" y="95" width="11" height="11" fill="#161b22" rx="2"/>
<rect x="754" y="109" width="11" height="11" fill="#161b22" rx="2"/>
<rect x="768" y="25" width="11" height="11" fill="#39d353" rx="2"/>
<rect x="768" y="39" width="11" height="11" fill="#39d353" rx="2"/>
<rect x="768" y="53" width="11" height="11" fill="#39d353" rx="2"/>
<rect x="768" y="67" width="11" height="11" fill="#39d353" rx="2"/>
<rect x="768" y="81" width="11" height="11" fill="#39d353" rx="2"/>
<rect x="768" y="95" width="11" height="11" fill="#161b22" rx="2"/>
<rect x="768" y="109" width="11" height="11" fill="#161b22" rx="2"/>
<text x="602" y="138" font-family="monospace" font-size="10" fill="#8b949e">Less</text>
<rect x="642" y="143" width="11" height="11" fill="#161b22" rx="2"/>
<rect x="661" y="143" width="11" height="11" fill="#0e4429" rx="2"/>
<rect x="680" y="143" width="11" height="11" fill="#006d32" rx="2"/>
<rect x="699" y="143" width="11" height="11" fill="#26a641" rx="2"/>
<rect x="718" y="143" width="11" height="11" fill="#39d353" rx="2"/>
<text x="737" y="138" font-family="monospace" font-size="10" fill="#8b949e">More</text>
<text x="15" y="173" font-family="monospace" font-size="11" fill="#8b949e">5 contributions in the last year</text>
</svg>